<svg width="800" height="800" viewBox="0 0 800 800" fill="none" xmlns="http://www.w3.org/2000/svg">
  <rect width="800" height="800" rx="64" fill="#EEF3FB"/>
  <path d="M0 590C132 522.667 265.333 489 400 489C534.667 489 668 522.667 800 590V800H0V590Z" fill="#D7E6FF"/>
  <rect x="233" y="88" width="334" height="622" rx="42" fill="#121723"/>
  <rect x="248" y="104" width="304" height="590" rx="34" fill="url(#paint0_linear_0_1)"/>
  <circle cx="311" cy="180" r="32" fill="#1E2431"/>
  <circle cx="311" cy="272" r="32" fill="#1E2431"/>
  <circle cx="311" cy="364" r="32" fill="#1E2431"/>
  <circle cx="487" cy="180" r="14" fill="#9FC2FF"/>
  <path d="M359 188L457 188" stroke="#D8E5FF" stroke-width="8" stroke-linecap="round"/>
  <path d="M307 618C378 584.667 450 584.667 523 618" stroke="#8DB3FF" stroke-width="12" stroke-linecap="round"/>
  <defs>
    <linearGradient id="paint0_linear_0_1" x1="400" y1="104" x2="400" y2="694" gradientUnits="userSpaceOnUse">
      <stop stop-color="#7988A4"/>
      <stop offset="1" stop-color="#2E3950"/>
    </linearGradient>
  </defs>
</svg>
